<svg width="615.4000244140625px" height="124.439990234375px" xmlns="http://www.w3.org/2000/svg" viewBox="-57.70001220703125 12.780004882812499 615.4000244140625 124.439990234375" style="background: rgba(0, 0, 0, 0) none repeat scroll 0% 0%;" preserveAspectRatio="xMidYMid"><defs><filter id="editing-metal-beveled"><feGaussianBlur stdDeviation="4" in="SourceAlpha" result="blur"></feGaussianBlur><feSpecularLighting surfaceScale="5" specularConstant="0.8" specularExponent="7.5" lighting-color="#fff" in="blur" result="specular"><fePointLight x="-250" y="-50" z="300"></fePointLight></feSpecularLighting><feComposite operator="in" in="specular" in2="SourceAlpha" result="comp"></feComposite><feComposite in="SourceGraphic" in2="comp" operator="arithmetic" k1="0" k2="1" k3="1" k4="0"></feComposite></filter></defs><g filter="url(#editing-metal-beveled)"><g transform="translate(30.800589084625244, 98.68000030517578)"><path d="M2.69-39.68L2.69-39.68L2.69-39.68Q3.58-41.47 5.54-42.46L5.54-42.46L5.54-42.46Q7.49-43.46 10.18-43.46L10.18-43.46L10.18-43.46Q14.40-43.46 16.93-40.42L16.93-40.42L16.93-40.42Q19.46-37.38 19.46-30.72L19.46-30.72L19.46-7.87L34.11-42.18L41.66-42.18L43.39-9.79L43.20-7.94L58.43-42.18L67.20-42.18L46.72 0L33.09 0L31.81-19.46L23.36 0L7.94 0L6.02-30.72L6.02-30.72Q5.82-34.18 4.90-36.45L4.90-36.45L4.90-36.45Q3.97-38.72 2.69-39.68ZM77.31 1.28L77.31 1.28L77.31 1.28Q63.23 1.28 63.23-11.97L63.23-11.97L63.23-11.97Q63.23-21.38 68.42-27.46L68.42-27.46L68.42-27.46Q73.92-33.92 83.46-33.92L83.46-33.92L83.46-33.92Q90.37-33.92 93.89-30.72L93.89-30.72L93.89-30.72Q97.41-27.52 97.41-20.80L97.41-20.80L97.41-20.80Q97.41-10.56 91.90-4.61L91.90-4.61L91.90-4.61Q86.53 1.28 77.31 1.28ZM78.98-26.56L78.98-26.56L78.98-26.56Q78.21-24.83 77.60-22.24L77.60-22.24L77.60-22.24Q76.99-19.65 76.22-15.55L76.22-15.55L76.22-15.55Q75.46-11.46 75.46-6.40L75.46-6.40L75.46-6.40Q75.46-4.74 76-3.65L76-3.65L76-3.65Q76.54-2.56 78.02-2.56L78.02-2.56L78.02-2.56Q79.49-2.56 80.42-3.26L80.42-3.26L80.42-3.26Q81.34-3.97 82.05-5.63L82.05-5.63L82.05-5.63Q83.33-8.58 84.35-14.05L84.35-14.05L84.35-14.05Q85.38-19.52 85.47-21.89L85.47-21.89L85.47-21.89Q85.57-24.26 85.57-26.02L85.57-26.02L85.57-26.02Q85.57-27.78 85.06-28.93L85.06-28.93L85.06-28.93Q84.54-30.08 83.10-30.08L83.10-30.08L83.10-30.08Q81.66-30.08 80.70-29.18L80.70-29.18L80.70-29.18Q79.74-28.29 78.98-26.56ZM121.22-17.98L121.22-17.98L121.22-17.98Q123.52-22.08 123.52-26.24L123.52-26.24L123.52-26.24Q123.52-28.99 121.54-28.99L121.54-28.99L121.54-28.99Q120-28.99 118.40-26.37L118.40-26.37L118.40-26.37Q116.74-23.74 116.22-20.35L116.22-20.35L112.90 0L99.65 1.28L106.18-32.64L116.74-33.92L115.58-27.46L115.58-27.46Q118.72-33.92 125.76-33.92L125.76-33.92L125.76-33.92Q129.47-33.92 131.49-32L131.49-32L131.49-32Q133.50-30.08 133.50-26.14L133.50-26.14L133.50-26.14Q133.50-22.21 130.91-19.71L130.91-19.71L130.91-19.71Q128.32-17.22 123.90-17.22L123.90-17.22L123.90-17.22Q121.98-17.22 121.22-17.98ZM154.69-33.92L154.69-33.92L154.69-33.92Q156.99-33.92 158.78-33.41L158.78-33.41L158.78-33.41Q158.85-33.66 158.98-34.37L158.98-34.37L159.30-36.35L159.30-36.35Q159.55-37.63 159.94-39.74L159.94-39.74L160.96-44.80L173.70-46.08L166.59-8.96L166.59-8.96Q166.53-8.58 166.53-7.94L166.53-7.94L166.53-6.91L166.53-6.91Q166.53-5.50 167.23-4.45L167.23-4.45L167.23-4.45Q167.94-3.39 169.09-3.39L169.09-3.39L169.09-3.39Q167.81-0.38 163.90 0.90L163.90 0.90L163.90 0.90Q162.56 1.28 160.67 1.28L160.67 1.28L160.67 1.28Q158.78 1.28 157.06 0.29L157.06 0.29L157.06 0.29Q155.33-0.70 154.82-2.37L154.82-2.37L154.82-2.37Q153.79-0.70 151.74 0.29L151.74 0.29L151.74 0.29Q149.70 1.28 146.72 1.28L146.72 1.28L146.72 1.28Q143.74 1.28 141.28 0.51L141.28 0.51L141.28 0.51Q138.82-0.26 137.28-1.92L137.28-1.92L137.28-1.92Q134.46-5.18 134.46-12.61L134.46-12.61L134.46-12.61Q134.46-22.21 140.10-28.03L140.10-28.03L140.10-28.03Q145.73-33.92 154.69-33.92ZM154.24-30.08L154.24-30.08L154.24-30.08Q151.87-30.08 150.59-27.52L150.59-27.52L150.59-27.52Q149.31-24.96 148-18.62L148-18.62L148-18.62Q146.69-12.29 146.69-6.59L146.69-6.59L146.69-6.59Q146.69-2.69 148.99-2.69L148.99-2.69L148.99-2.69Q151.04-2.69 152.48-4.74L152.48-4.74L152.48-4.74Q153.92-6.78 154.50-10.18L154.50-10.18L157.95-28.93L157.95-28.93Q156.61-30.08 154.24-30.08ZM221.12-13.25L221.12-13.25L221.12-13.25Q222.78-12.03 222.78-9.44L222.78-9.44L222.78-9.44Q222.78-6.85 221.66-5.02L221.66-5.02L221.66-5.02Q220.54-3.20 218.37-1.79L218.37-1.79L218.37-1.79Q213.70 1.22 205.54 1.22L205.54 1.22L205.54 1.22Q197.38 1.22 192.93-3.04L192.93-3.04L192.93-3.04Q188.48-7.30 188.48-14.85L188.48-14.85L188.48-14.85Q188.48-25.54 194.05-33.66L194.05-33.66L194.05-33.66Q198.27-39.68 205.82-42.24L205.82-42.24L205.82-42.24Q209.73-43.52 213.57-43.52L213.57-43.52L213.57-43.52Q217.41-43.52 219.78-43.01L219.78-43.01L219.78-43.01Q222.14-42.50 223.94-41.47L223.94-41.47L223.94-41.47Q227.84-39.23 227.84-35.65L227.84-35.65L227.84-35.65Q227.84-32.38 224.77-29.95L224.77-29.95L224.77-29.95Q221.95-27.78 219.65-27.78L219.65-27.78L219.65-27.78Q217.34-27.78 216.38-28.10L216.38-28.10L216.38-28.10Q216.64-30.40 216.64-31.90L216.64-31.90L216.64-31.90Q216.64-33.41 216.58-34.50L216.58-34.50L216.58-34.50Q216.51-35.58 216.19-36.61L216.19-36.61L216.19-36.61Q215.55-38.98 213.60-38.98L213.60-38.98L213.60-38.98Q211.65-38.98 209.70-37.15L209.70-37.15L209.70-37.15Q207.74-35.33 206.08-32.26L206.08-32.26L206.08-32.26Q202.30-25.28 202.30-17.02L202.30-17.02L202.30-17.02Q202.30-13.06 204.54-10.78L204.54-10.78L204.54-10.78Q206.78-8.51 211.58-8.51L211.58-8.51L211.58-8.51Q215.17-8.51 218.56-10.88L218.56-10.88L218.56-10.88Q220.03-11.90 221.12-13.25ZM242.05 1.28L242.05 1.28L242.05 1.28Q227.97 1.28 227.97-11.97L227.97-11.97L227.97-11.97Q227.97-21.38 233.15-27.46L233.15-27.46L233.15-27.46Q238.66-33.92 248.19-33.92L248.19-33.92L248.19-33.92Q255.10-33.92 258.62-30.72L258.62-30.72L258.62-30.72Q262.14-27.52 262.14-20.80L262.14-20.80L262.14-20.80Q262.14-10.56 256.64-4.61L256.64-4.61L256.64-4.61Q251.26 1.28 242.05 1.28ZM243.71-26.56L243.71-26.56L243.71-26.56Q242.94-24.83 242.34-22.24L242.34-22.24L242.34-22.24Q241.73-19.65 240.96-15.55L240.96-15.55L240.96-15.55Q240.19-11.46 240.19-6.40L240.19-6.40L240.19-6.40Q240.19-4.74 240.74-3.65L240.74-3.65L240.74-3.65Q241.28-2.56 242.75-2.56L242.75-2.56L242.75-2.56Q244.22-2.56 245.15-3.26L245.15-3.26L245.15-3.26Q246.08-3.97 246.78-5.63L246.78-5.63L246.78-5.63Q248.06-8.58 249.09-14.05L249.09-14.05L249.09-14.05Q250.11-19.52 250.21-21.89L250.21-21.89L250.21-21.89Q250.30-24.26 250.30-26.02L250.30-26.02L250.30-26.02Q250.30-27.78 249.79-28.93L249.79-28.93L249.79-28.93Q249.28-30.08 247.84-30.08L247.84-30.08L247.84-30.08Q246.40-30.08 245.44-29.18L245.44-29.18L245.44-29.18Q244.48-28.29 243.71-26.56ZM286.46-2.69L286.46-2.69L286.46-2.69Q283.39 1.28 275.78 1.28L275.78 1.28L275.78 1.28Q271.81 1.28 268.93-1.12L268.93-1.12L268.93-1.12Q266.05-3.52 266.05-6.98L266.05-6.98L266.05-6.98Q266.05-8.90 266.24-9.86L266.24-9.86L270.53-32.64L283.52-33.92L278.85-9.22L278.85-9.22Q278.59-7.81 278.59-6.98L278.59-6.98L278.59-6.98Q278.59-3.26 280.83-3.26L280.83-3.26L280.83-3.26Q283.33-3.26 285.12-6.66L285.12-6.66L285.12-6.66Q285.70-7.74 285.95-9.15L285.95-9.15L290.50-32.64L303.10-33.92L298.37-8.96L298.37-8.96Q298.18-8 298.18-6.98L298.18-6.98L298.18-6.98Q298.18-5.95 298.75-4.83L298.75-4.83L298.75-4.83Q299.33-3.71 301.18-3.46L301.18-3.46L301.18-3.46Q300.80-1.92 299.46-0.90L299.46-0.90L299.46-0.90Q296.64 1.28 293.60 1.28L293.60 1.28L293.60 1.28Q290.56 1.28 288.77 0.19L288.77 0.19L288.77 0.19Q286.98-0.90 286.46-2.69ZM333.63 1.28L333.63 1.28L333.63 1.28Q325.89 1.28 325.89-4.74L325.89-4.74L325.89-4.74Q325.95-6.40 326.46-9.22L326.46-9.22L327.62-15.10L327.62-15.10Q329.34-23.42 329.34-25.28L329.34-25.28L329.34-25.28Q329.34-28.99 327.17-28.99L327.17-28.99L327.17-28.99Q323.52-28.99 321.60-19.46L321.60-19.46L317.82 0L304.96 1.28L311.62-32.70L322.11-33.92L321.09-27.65L321.09-27.65Q324.10-33.92 333.31-33.92L333.31-33.92L333.31-33.92Q337.79-33.92 339.68-32.03L339.68-32.03L339.68-32.03Q341.57-30.14 341.57-25.92L341.57-25.92L341.57-25.92Q341.57-21.95 339.52-12.67L339.52-12.67L339.52-12.67Q338.56-8.51 338.56-6.94L338.56-6.94L338.56-6.94Q338.56-5.38 339.42-4.48L339.42-4.48L339.42-4.48Q340.29-3.58 341.57-3.46L341.57-3.46L341.57-3.46Q340.93-1.28 338.72 0L338.72 0L338.72 0Q336.51 1.28 333.63 1.28ZM347.71-6.40L347.71-6.40L347.71-6.40Q347.71-8.13 348.61-12.48L348.61-12.48L352.00-29.76L348.22-29.76L348.48-31.68L348.48-31.68Q356.16-33.98 363.58-39.62L363.58-39.62L366.66-39.62L365.12-32.64L370.11-32.64L369.54-29.76L364.61-29.76L361.34-12.48L361.34-12.48Q360.51-8.51 360.51-7.17L360.51-7.17L360.51-7.17Q360.51-4.10 363.20-3.46L363.20-3.46L363.20-3.46Q362.56-1.28 360.26 0L360.26 0L360.26 0Q357.95 1.28 354.69 1.28L354.69 1.28L354.69 1.28Q351.42 1.28 349.57-0.77L349.57-0.77L349.57-0.77Q347.71-2.82 347.71-6.40ZM395.46-10.82L395.46-10.82L395.46-10.82Q397.06-9.73 397.06-7.33L397.06-7.33L397.06-7.33Q397.06-4.93 395.84-3.39L395.84-3.39L395.84-3.39Q394.62-1.86 392.64-0.83L392.64-0.83L392.64-0.83Q388.54 1.28 384.13 1.28L384.13 1.28L384.13 1.28Q379.71 1.28 377.12 0.32L377.12 0.32L377.12 0.32Q374.53-0.64 372.80-2.43L372.80-2.43L372.80-2.43Q369.41-5.82 369.41-12.03L369.41-12.03L369.41-12.03Q369.41-21.70 374.66-27.58L374.66-27.58L374.66-27.58Q380.29-33.92 390.08-33.92L390.08-33.92L390.08-33.92Q396.16-33.92 399.17-31.36L399.17-31.36L399.17-31.36Q401.41-29.44 401.41-26.30L401.41-26.30L401.41-26.30Q401.41-15.04 381.95-15.04L381.95-15.04L381.95-15.04Q381.70-13.38 381.70-11.97L381.70-11.97L381.70-11.97Q381.70-9.02 383.01-7.90L383.01-7.90L383.01-7.90Q384.32-6.78 386.75-6.78L386.75-6.78L386.75-6.78Q389.18-6.78 391.78-7.90L391.78-7.90L391.78-7.90Q394.37-9.02 395.46-10.82ZM382.40-17.79L382.40-17.79L382.40-17.79Q386.94-17.79 389.57-20.61L389.57-20.61L389.57-20.61Q392.19-23.30 392.19-27.58L392.19-27.58L392.19-27.58Q392.19-29.06 391.65-29.86L391.65-29.86L391.65-29.86Q391.10-30.66 390.02-30.66L390.02-30.66L390.02-30.66Q388.93-30.66 388-30.24L388-30.24L388-30.24Q387.07-29.82 386.11-28.42L386.11-28.42L386.11-28.42Q383.74-25.22 382.40-17.79ZM423.62-17.98L423.62-17.98L423.62-17.98Q425.92-22.08 425.92-26.24L425.92-26.24L425.92-26.24Q425.92-28.99 423.94-28.99L423.94-28.99L423.94-28.99Q422.40-28.99 420.80-26.37L420.80-26.37L420.80-26.37Q419.14-23.74 418.62-20.35L418.62-20.35L415.30 0L402.05 1.28L408.58-32.64L419.14-33.92L417.98-27.46L417.98-27.46Q421.12-33.92 428.16-33.92L428.16-33.92L428.16-33.92Q431.87-33.92 433.89-32L433.89-32L433.89-32Q435.90-30.08 435.90-26.14L435.90-26.14L435.90-26.14Q435.90-22.21 433.31-19.71L433.31-19.71L433.31-19.71Q430.72-17.22 426.30-17.22L426.30-17.22L426.30-17.22Q424.38-17.22 423.62-17.98Z" fill="#444"></path></g></g><style>text {
  font-size: 64px;
  font-family: Arial Black;
  dominant-baseline: central;
  text-anchor: middle;
}</style></svg>