<svg height="128" width="128" xmlns="http://www.w3.org/2000/svg" data-name="Layer 1" style=""><rect id="backgroundrect" width="100%" height="100%" x="0" y="0" fill="#6767e7" stroke="none" style="" class="" opacity="1" fill-opacity="1"/><g class="currentLayer" style=""><title>Layer 1</title><path d="m30.600000381469727,59.36351418495178 h10.170000076293945 a1.7510000467300415,1.7510000467300415 0 0 0 1.75,-1.75 v-10.166000366210938 a1.7510000467300415,1.7510000467300415 0 0 0 -1.75,-1.75 h-10.170000076293945 a1.75,1.75 0 0 0 -1.7489999532699585,1.75 v10.166000366210938 a1.75,1.75 0 0 0 1.7489999532699585,1.75 zm1.75,-10.164999961853027 h6.670000076293945 v6.664999961853027 h-6.670000076293945 z" id="svg_1" class="" fill="#ffffff" fill-opacity="1"/><path d="m30.6 81.749h10.17a1.751 1.751 0 0 0 1.751-1.749v-10.166a1.751 1.751 0 0 0 -1.75-1.75h-10.171a1.75 1.75 0 0 0 -1.75 1.75v10.166a1.75 1.75 0 0 0 1.75 1.749zm1.75-10.165h6.67v6.665h-6.67z" id="svg_2" class="" fill="#ffffff" fill-opacity="1"/><path d="m30.6 103.582h10.17a1.751 1.751 0 0 0 1.75-1.75v-10.164a1.751 1.751 0 0 0 -1.75-1.75h-10.17a1.75 1.75 0 0 0 -1.75 1.75v10.164a1.75 1.75 0 0 0 1.75 1.75zm1.75-10.164h6.67v6.664h-6.67z" id="svg_3" class="" fill="#ffffff" fill-opacity="1"/><path d="m30.6 38.082h10.17a1.751 1.751 0 0 0 1.75-1.75v-10.164a1.751 1.751 0 0 0 -1.75-1.75h-10.17a1.75 1.75 0 0 0 -1.75 1.75v10.164a1.75 1.75 0 0 0 1.75 1.75zm1.75-10.164h6.67v6.664h-6.67z" id="svg_4" class="" fill="#ffffff" fill-opacity="1"/><path d="m50.94 31.751h46.46a1.75 1.75 0 0 0 0-3.5h-46.46a1.75 1.75 0 0 0 0 3.5z" id="svg_5" class="" fill="#ffffff" fill-opacity="1"/><path d="m50.94 54.833h46.46a1.75 1.75 0 0 0 0-3.5h-46.46a1.75 1.75 0 0 0 0 3.5z" id="svg_6" class="" fill="#ffffff" fill-opacity="1"/><path d="m50.94 77.916h46.46a1.75 1.75 0 0 0 0-3.5h-46.46a1.75 1.75 0 0 0 0 3.5z" id="svg_7" class="" fill="#ffffff" fill-opacity="1"/><path d="m50.94 101h46.46a1.75 1.75 0 0 0 0-3.5h-46.46a1.75 1.75 0 1 0 0 3.5z" id="svg_8" class="" fill="#ffffff" fill-opacity="1"/><path d="m112.65499877929688,5.302486181259155 h-97.30999755859375 a1.75,1.75 0 0 0 -1.7450000047683716,1.75 v115 a1.75,1.75 0 0 0 1.75,1.75 h97.30999755859375 a1.75,1.75 0 0 0 1.75,-1.75 v-115 a1.75,1.75 0 0 0 -1.7549999952316284,-1.75 zm-1.75,115 h-93.80500030517578 v-111.5 h93.80999755859375 z" id="svg_9" class="" fill="#ffffff" fill-opacity="1" transform="rotate(7.30735, 64.005, 64.5525)"/></g></svg>